<?xml version="1.0" encoding="UTF-8" standalone="no"?><!DOCTYPE svg PUBLIC "-//W3C//DTD SVG 1.1//EN" "http://www.w3.org/Graphics/SVG/1.1/DTD/svg11.dtd"><svg width="100%" height="100%" viewBox="0 0 200 200" version="1.1" xmlns="http://www.w3.org/2000/svg" xmlns:xlink="http://www.w3.org/1999/xlink" xml:space="preserve" xmlns:serif="http://www.serif.com/" style="fill-rule:evenodd;clip-rule:evenodd;stroke-linejoin:round;stroke-miterlimit:2;"><rect id="Artboard1" x="0" y="0" width="200" height="200" style="fill:none;"/><clipPath id="_clip1"><rect x="0" y="0" width="200" height="200"/></clipPath><g clip-path="url(#_clip1)"><path d="M200,24.051l0,153.397c0,12.17 -9.881,22.051 -22.051,22.051l-155.897,0c-12.17,0 -22.051,-9.881 -22.051,-22.051l0,-153.397c0,-12.17 9.881,-22.051 22.051,-22.051l155.897,-0c12.17,0 22.051,9.881 22.051,22.051Z" style="fill:#dbc4e7;"/><g transform="matrix(6.238709,0,0,6.238709,-452.793241,-1839.686365)"><g transform="matrix(0.86,0,0,1.09,10.36,-29.25)"><text x="74px" y="325px" style="font-family:'MrDodo-Regular', 'Mr Dodo';font-size:34.328px;fill:#4f6c37;">S</text></g><g transform="matrix(0.86,0,0,1.09,12.276424,-29.25)"><g transform="matrix(34.32847,0,0,34.32847,105.054124,325)"></g><text x="87.689px" y="325px" style="font-family:'MrDodo-Regular', 'Mr Dodo';font-size:34.328px;fill:#572b6f;">P</text></g></g></g></svg>