<svg width="371" height="53" viewBox="0 0 371 53" fill="none" xmlns="http://www.w3.org/2000/svg">
<g clip-path="url(#clip0_1_2)">
<path d="M223.5 48.3C223.5 50.8 221.9 52.4 219.8 52.4C217.7 52.4 216.5 51.3 216.1 49.3C214.7 51.6 211.8 52.7 209.3 52.7C201.8 52.7 197 45.7 197 38.7C197 31.5 201 23.9 209 23.9C211.6 23.9 214.1 24.8 216.1 26.5V16.4C216.1 13.9 217.6 12.3 219.8 12.3C222 12.3 223.5 14 223.5 16.4V48.3ZM210.2 30.8C206.3 30.8 204.4 34.9 204.4 38.4C204.4 41.9 206.3 45.9 210.2 45.9C214.3 45.9 216 41.8 216 38.1C216 34.6 214.2 30.8 210.2 30.8ZM186.8 16.5C186.8 14 188.4 12.4 190.5 12.4C192.7 12.4 194.2 14.1 194.2 16.5V48.4C194.2 50.9 192.7 52.5 190.5 52.5C188.3 52.5 186.8 50.8 186.8 48.4V16.5ZM165.1 40.9C165.6 44.6 168.7 46.3 172.1 46.3C175.9 46.3 178.6 43.3 180.5 43.3C182.1 43.3 183.6 44.9 183.6 46.5C183.6 49.7 177 52.8 171.4 52.8C163 52.8 157.4 46.7 157.4 38.5C157.4 30.9 162.9 24.1 170.7 24.1C178.8 24.1 184.1 31.4 184.1 37.7C184.1 39.9 183.1 41 180.8 41L165.1 40.9ZM176.8 35.9C176.4 32.6 174.3 30.2 170.8 30.2C167.5 30.2 165.3 32.7 164.9 35.9H176.8ZM155.5 17.2C155.5 19.5 153.6 21.5 151.3 21.5C149.1 21.5 147.1 19.5 147.1 17.2C147.1 15.1 149.1 13.1 151.3 13.1C153.5 13.2 155.5 15.1 155.5 17.2ZM147.5 28.5C147.5 26 149 24.4 151.2 24.4C153.4 24.4 154.9 26.1 154.9 28.5V48.4C154.9 50.9 153.4 52.5 151.2 52.5C149 52.5 147.5 50.8 147.5 48.4V28.5ZM132.8 31.2H131.1C129.1 31.2 127.8 30 127.8 27.9C127.8 26 129.2 24.6 131.1 24.6H132.8V20.8C132.8 15.3 136.1 12.3 140.6 12.3C143.2 12.3 145.8 13.1 145.8 15.7C145.8 17.9 144.8 18.9 142.7 18.9C141.5 18.9 140.2 18.9 140.2 21.6V24.7H142.5C144.7 24.7 146.3 25.6 146.3 28C146.3 30.3 144.7 31.3 142.5 31.3H140.2V48.5C140.2 51 138.6 52.6 136.5 52.6C134.3 52.6 132.8 50.9 132.8 48.5V31.2ZM109.3 40.9C109.8 44.6 112.9 46.3 116.3 46.3C120.1 46.3 122.8 43.3 124.7 43.3C126.3 43.3 127.8 44.9 127.8 46.5C127.8 49.7 121.2 52.8 115.6 52.8C107.2 52.8 101.6 46.7 101.6 38.5C101.6 30.9 107.1 24.1 114.9 24.1C123 24.1 128.3 31.4 128.3 37.7C128.3 39.9 127.3 41 125 41L109.3 40.9ZM121 35.9C120.6 32.6 118.5 30.2 115 30.2C111.7 30.2 109.5 32.7 109.1 35.9H121ZM78.2 16.5C78.2 14 79.8 12.4 81.9 12.4C84.1 12.4 85.6 14.1 85.6 16.5V33.9L93.8 26C95 24.9 96.2 24.4 97.2 24.4C99.1 24.4 100.4 26.1 100.4 27.8C100.4 28.9 100 29.8 99 30.8L92.4 36.7L101.1 46.9C101.8 47.7 102 48.6 102 49.4C102 51.4 100.4 52.9 98.5 52.9C97.2 52.9 96.1 52.1 94.9 50.6L85.8 39.4H85.7V48.5C85.7 51 84.1 52.6 82 52.6C79.8 52.6 78.3 50.9 78.3 48.5L78.2 16.5ZM74.8 47.6C74.8 49.5 74.8 52.5 71.2 52.5C69 52.5 68.1 51.3 67.6 49.3C65.7 51.6 63.4 52.8 60.5 52.8C53.5 52.8 48.2 46.9 48.2 38.5C48.2 30.3 53.7 24.1 60.5 24.1C63.2 24.1 65.9 25.2 67.6 27.5C67.8 25.7 69.4 24.4 71.2 24.4C74.8 24.4 74.8 27.4 74.8 29.3V47.6ZM61.6 46C65.5 46 67.3 42.1 67.3 38.5C67.3 34.9 65.5 30.9 61.6 30.9C57.5 30.9 55.7 34.9 55.7 38.5C55.7 42.1 57.6 46 61.6 46ZM15.6 40.5L7.29999 24.8C6.69999 23.7 5.59999 23 4.29999 22.9C2.19999 22.7 0.399994 24.3 0.199994 26.4C0.0999937 27.1 0.299994 27.9 0.599994 28.5L12.4 50.9C13 52 14.1 52.7 15.4 52.8C17 52.9 18.5 52 19.2 50.6L27.5 32.8C27.7 32.4 27.8 31.9 27.8 31.5C28 29.4 26.4 27.5 24.3 27.4C22.7 27.3 21.3 28.2 20.6 29.5L15.6 40.5Z" fill="#333086"/>
<path d="M54.5 13.5C54.5 15.6 52.8 17.3 50.7 17.3C48.6 17.3 46.9 15.6 46.9 13.5C46.9 11.4 48.6 9.7 50.7 9.7C52.8 9.7 54.5 11.4 54.5 13.5ZM59.1 4C59.1 6.1 57.4 7.8 55.3 7.8C53.2 7.8 51.5 6.1 51.5 4C51.5 1.9 53.2 0.199997 55.3 0.199997C57.4 0.199997 59.1 1.9 59.1 4ZM50.6 22.3C50.6 20.2 48.9 18.5 46.8 18.5C44.7 18.5 43 20.2 43 22.3C43 22.8 43.1 23.3 43.3 23.7C42.2 24 41.3 24.7 40.8 25.7L34 40.4L32.9 39C32.3 37.9 31.2 37.2 29.9 37.1C27.8 36.9 25.9 38.5 25.8 40.6C25.7 41.3 25.9 42.1 26.2 42.7L30.7 50.9C31.3 52 32.4 52.7 33.8 52.8C35.4 52.9 36.9 52 37.6 50.6L47.7 29.1C47.9 28.7 48 28.2 48 27.8C48 27.2 47.9 26.6 47.7 26.1C49.3 25.6 50.6 24.1 50.6 22.3ZM370.9 50.3C370.9 51.8 369.9 52.8 368.4 52.8C366.9 52.8 365.9 51.9 365.9 50.3V14.3C365.9 12.8 366.9 11.8 368.4 11.8C369.9 11.8 370.9 12.7 370.9 14.3V50.3ZM360.2 14.6C361.9 14.6 363.3 15.9 363.3 17.4C363.3 18.9 361.9 20.2 360.2 20.2C358.5 20.2 357.1 18.9 357.1 17.4C357.1 15.9 358.5 14.6 360.2 14.6ZM362.7 50.3C362.7 51.8 361.7 52.8 360.2 52.8C358.7 52.8 357.7 51.9 357.7 50.3V26.6C357.7 25.1 358.7 24.1 360.2 24.1C361.7 24.1 362.7 25 362.7 26.6V50.3ZM346.9 24.1C352 24.1 355.1 25.7 355.1 27.6C355.1 28.6 354.2 29.6 353 29.6C351.1 29.6 350.3 28.1 346.9 28.1C340.7 28.1 338.2 33.7 338.2 38.4C338.2 43.1 340.7 48.7 346.9 48.7C350.4 48.7 351.4 47.1 353 47.1C354.1 47.1 354.9 47.8 354.9 49.1C354.9 50.8 352.1 52.7 346.9 52.7C337.6 52.7 333.2 45.8 333.2 38.4C333.2 31 337.7 24.1 346.9 24.1ZM306.7 26.6C306.7 25.1 307.7 24.1 309.2 24.1C310.7 24.1 311.7 25 311.7 26.6V27.7L311.8 27.8C314 25.2 317.2 24.1 320.2 24.1C324.9 24.1 330.8 26.8 330.8 34.7V50.2C330.8 51.7 329.8 52.7 328.3 52.7C326.8 52.7 325.8 51.8 325.8 50.2V35C325.8 30.1 322.1 28.1 318.8 28.1C315.5 28.1 311.8 30.1 311.8 35V50.3C311.8 51.8 310.8 52.8 309.3 52.8C307.8 52.8 306.8 51.9 306.8 50.3V26.6H306.7ZM279.5 26.6C279.5 25.1 280.5 24.1 282 24.1C283.5 24.1 284.5 25 284.5 26.6V41.5C284.5 46.3 286.8 48.8 291.5 48.8C296.2 48.8 298.5 46.3 298.5 41.5V26.6C298.5 25.1 299.5 24.1 301 24.1C302.5 24.1 303.5 25 303.5 26.6V41.6C303.5 49.8 297.6 52.8 291.4 52.8C285.2 52.8 279.3 49.8 279.3 41.6V26.6H279.5ZM263 24.1C271.6 24.1 276.4 31 276.4 38.4C276.4 45.8 271.6 52.7 263 52.7C254.4 52.7 249.6 45.8 249.6 38.4C249.6 31 254.4 24.1 263 24.1ZM263 48.7C269.2 48.7 271.3 43.1 271.3 38.4C271.3 33.7 269.1 28.1 263 28.1C256.8 28.1 254.7 33.7 254.7 38.4C254.6 43.2 256.8 48.7 263 48.7ZM240.1 24.1C245.2 24.1 248.3 25.7 248.3 27.6C248.3 28.6 247.4 29.6 246.2 29.6C244.3 29.6 243.5 28.1 240.1 28.1C233.9 28.1 231.4 33.7 231.4 38.4C231.4 43.1 233.9 48.7 240.1 48.7C243.6 48.7 244.6 47.1 246.2 47.1C247.3 47.1 248.1 47.8 248.1 49.1C248.1 50.8 245.3 52.7 240.1 52.7C230.8 52.7 226.4 45.8 226.4 38.4C226.4 31 230.9 24.1 240.1 24.1Z" fill="#6DB344"/>
</g>
<defs>
<clipPath id="clip0_1_2">
<rect width="371" height="53" fill="white"/>
</clipPath>
</defs>
</svg>
